<svg xmlns="http://www.w3.org/2000/svg" width="24" height="24" viewBox="0 0 24 24"><g fill="none" fill-rule="evenodd"><path fill="#464D5A" d="M6.7 16.3c.276 0 .5.224.5.5V18c0 .276-.224.5-.5.5H5.5c-.276 0-.5-.224-.5-.5v-1.2c0-.276.224-.5.5-.5h1.2zm13.3.45V18H9v-1.25h11zM6.7 10.9c.276 0 .5.224.5.5v1.2c0 .276-.224.5-.5.5H5.5c-.276 0-.5-.224-.5-.5v-1.2c0-.276.224-.5.5-.5h1.2zm13.3.48v1.25H9v-1.25h11zM6.7 5.5c.276 0 .5.224.5.5v1.2c0 .276-.224.5-.5.5H5.5c-.276 0-.5-.224-.5-.5V6c0-.276.224-.5.5-.5h1.2zM20 6v1.25H9V6h11z"></path></g></svg>