<svg xmlns="http://www.w3.org/2000/svg" xmlns:xlink="http://www.w3.org/1999/xlink" width="24px" height="24px" viewBox="0 0 24 24" version="1.1"> <title>bottombar/fill</title> <g id="bottombar/fill" stroke="none" stroke-width="1" fill="none" fill-rule="evenodd"> <g id="bottombar_fill"> <rect id="矩形" x="0" y="0" width="24" height="24"/> <path d="M9.809,13.309 L10.692,14.192 L7.134,17.752 L9.99162909,17.7512208 L9.99162909,19 L5,19 L5,14.0048834 L6.24790727,14.0048834 L6.247,16.873 L9.809,13.309 Z M14.191,13.309 L17.753,16.873 L17.7520927,14.0048834 L19,14.0048834 L19,19 L14.0083709,19 L14.0083709,17.7512208 L16.866,17.752 L13.308,14.192 L14.191,13.309 Z M9.99162909,5 L9.99162909,6.24877916 L7.133,6.248 L10.692,9.808 L9.809,10.691 L6.247,7.127 L6.24790727,9.99511664 L5,9.99511664 L5,5 L9.99162909,5 Z M19,5 L19,9.99511664 L17.7520927,9.99511664 L17.753,7.127 L14.191,10.691 L13.308,9.808 L16.867,6.248 L14.0083709,6.24877916 L14.0083709,5 L19,5 Z" id="形状结合" fill="#464D5A"/> </g> </g> </svg>