<svg xmlns="http://www.w3.org/2000/svg" width="24" height="24" viewBox="0 0 24 24"><g fill="none" fill-rule="evenodd"><path fill="#444D5B" fill-rule="nonzero" d="M12 4.5c4.142 0 7.5 3.358 7.5 7.5 0 4.142-3.358
            7.5-7.5 7.5-4.142 0-7.5-3.358-7.5-7.5 0-4.142 3.358-7.5 7.5-7.5zm0 1.25c-3.452 0-6.25 2.798-6.25
            6.25s2.798 6.25 6.25 6.25 6.25-2.798 6.25-6.25S15.452 5.75 12 5.75zM12.61 8v3.369l3.39.001v1.25l-3.39-.001V16h-1.25v-3.381L8
            12.62v-1.25l3.36-.001V8h1.25z"></path></g></svg>