<svg xmlns="http://www.w3.org/2000/svg" width="24" height="24" viewBox="0 0 24 24"><g fill="none" fill-rule="evenodd"><path fill="#464D5A" d="M20 16.75V18H9v-1.25h11zm0-5.37v1.25H9v-1.25h11zM20 6v1.25H9V6h11z"></path><g fill="#464D5A" fill-rule="nonzero" stroke="#464D5A" stroke-width=".3"><path d="M1.25 0h.37v3.213h-.491V.59C.935.774.688.909.391.995V.508C.535.472.683.41.846.32 1.008.22 1.143.117 1.25 0zM1.206 5.137c.306 0 .563.086.76.266.194.18.293.409.293.693 0 .279-.108.53-.315.76-.126.13-.347.301-.666.518-.347.229-.553.432-.621.607h1.607v.432H.05c0-.32.103-.599.319-.841.117-.14.36-.333.724-.585.217-.154.37-.275.46-.37.143-.162.22-.337.22-.526 0-.18-.05-.315-.148-.405-.1-.09-.248-.135-.437-.135-.202 0-.355.067-.459.207-.108.135-.162.329-.171.59h-.49c.004-.36.107-.649.31-.864.207-.234.486-.347.828-.347zM1.188 10.437c.324 0 .58.077.778.234.19.158.289.373.289.648 0 .351-.18.59-.531.706.189.059.333.149.431.266.109.121.163.279.163.468 0 .297-.104.54-.307.729-.216.189-.499.288-.841.288-.328 0-.594-.085-.792-.252-.225-.189-.351-.463-.378-.823h.495c.009.215.077.382.212.499.117.108.27.162.459.162.207 0 .373-.063.499-.18.108-.108.166-.239.166-.4 0-.19-.058-.329-.175-.419-.108-.09-.27-.135-.481-.135H.94v-.369h.23c.198 0 .347-.045.446-.13.098-.086.152-.212.152-.374s-.049-.284-.139-.369c-.099-.09-.248-.13-.437-.13-.193 0-.346.049-.454.148-.108.099-.175.248-.194.446H.064c.027-.32.144-.567.355-.747.199-.18.455-.266.77-.266z" transform="translate(5 5.087)"></path></g></g></svg>