<svg xmlns="http://www.w3.org/2000/svg" width="24" height="24" viewBox="0 0 24 24"><g fill="none" fill-rule="evenodd"><g><path stroke="#464D5A" stroke-width="1.25" d="M4 3.625h6c2.761 0 5 1.989 5 4.75s-2.239 5-5 5H3" transform="matrix(-1 0 0 1 24 0) translate(4 4.625)"></path><path fill="#464D5A" d="M5 .747v5.528c0 .111-.09.2-.2.2-.036 0-.07-.009-.101-.027L.276 3.849c-.095-.056-.127-.178-.07-.274.014-.026.036-.048.061-.065L4.69.58c.092-.06.216-.035.277.057.021.033.033.071.033.11z" transform="matrix(-1 0 0 1 24 0) translate(4 4.625)"></path></g></g></svg>