<svg width="24px" height="24px" viewBox="0 0 24 24" version="1.1">
    <g id="toolbar/ai/tools" stroke="none" stroke-width="1" fill="none" fill-rule="evenodd">
        <rect id="矩形备份" fill="#E4E4E4" opacity="0" x="0" y="0" width="24" height="24"></rect>
        <path d="M13.35,18.7 C13.7089851,18.7 14,18.9910149 14,19.35 C14,19.7089851 13.7089851,20 13.35,20
            L10.65,20 C10.2910149,20 10,19.7089851 10,19.35 C10,18.9910149 10.2910149,18.7 10.65,18.7 L13.35,18.7
            Z M12,3.7 C15.5898509,3.7 18.5,6.61014913 18.5,10.2 C18.5,12.7072927 17.0803787,14.8830151 15.0010736,15.9672297
            L15,16.7 C15,17.2522847 14.5522847,17.7 14,17.7 L10,17.7 C9.44771525,17.7 9,17.2522847 9,16.7 L8.99992214,15.9677488
            C6.92007453,14.8837097 5.5,12.7076929 5.5,10.2 C5.5,6.61014913 8.41014913,3.7 12,3.7 Z M12,5 C9.1281193,5 6.8,7.3281193
            6.8,10.2 C6.8,12.1599837 7.89308955,13.9248725 9.60077919,14.8149388 C9.98744585,15.0164737 10.2443766,15.3964775
            10.2919336,15.8236521 L10.2999221,15.9676106 L10.3,16.4 L13.7,16.4 L13.701075,15.9653251 C13.7017129,15.5299336
            13.9198909,15.1272715 14.2762292,14.8880367 L14.4000168,14.8145239 C16.1072712,13.9243081 17.2,12.1596628
            17.2,10.2 C17.2,7.3281193 14.8718807,5 12,5 Z M12.7706682,7 C12.7913111,7 12.805073,7.00719424 12.811954,7.02158273
            L12.8274362,7.04766187 L12.8274362,7.04766187 L12.8325969,7.07913669 L12.5573583,9.74100719 L13.9335515,9.74100719
            C13.9587862,9.74086739 13.9822622,9.75450338 13.9954802,9.77697842 C14.0000675,9.79136691 14.0015966,9.80895284
            13.9980287,9.82547295 L13.9885992,9.84892086 L11.2293318,13.971223 L11.2043883,13.9910072 L11.2043883,13.9910072
            L11.1742841,14 L11.1261173,14 C11.1054744,14 11.0848315,13.9928058 11.0710696,13.9784173 L11.0590279,13.9523381
            L11.0590279,13.9523381 L11.0573076,13.9208633 L11.4219988,11.2086331 L10.0664485,11.2086331 C10.0389246,11.2086331
            10.0182817,11.1942446 10.0045198,11.1726619 C9.99993248,11.1582734 9.99840338,11.1406875 10.0019713,11.1241673
            L10.0114008,11.1007194 L12.6399299,7.02877698 L12.6648734,7.00899281 L12.6648734,7.00899281 L12.6949776,7
            L12.7706682,7 Z" id="形状" fill="#464D5A" fill-rule="nonzero"></path>
    </g>
</svg>