<svg xmlns="http://www.w3.org/2000/svg" width="24" height="24" viewBox="0 0 24 24"><g fill="none" fill-rule="evenodd"><g fill="#464D5A"><path d="M9.743 7.443c.206.17.396.36.566.568.485.622.73 1.405.686 2.2.008.687-.182 1.361-.545 1.94-.38.59-.916 1.059-1.545 1.352-.734.344-1.535.513-2.342.496-.876.009-1.743-.175-2.544-.537-.763-.349-1.45-.85-2.019-1.476l.909-1.033c.472.53 1.042.962 1.675 1.27.631.307 1.321.466 2.02.465.76.04 1.512-.185 2.13-.64.806-.704 1.017-1.89.504-2.84-.18-.297-.43-.545-.726-.722-.406-.236-.824-.45-1.252-.64l-.889-.403h3.372zM6.715 0c1.447-.005 2.833.596 3.836 1.662l-.808.97c-.796-.832-1.89-1.297-3.028-1.29-.666-.02-1.319.195-1.848.61-.46.364-.723.932-.707 1.527-.006.371.107.734.323 1.032.201.278.455.51.748.682.282.186.656.35 1.14.568l.073.032H3.563c-.045-.044-.088-.089-.13-.136-.523-.579-.795-1.35-.757-2.137-.007-.644.172-1.276.515-1.817.38-.55.9-.982 1.504-1.249C5.327.151 6.017-.004 6.715 0z" transform="translate(5 5)"></path><path d="M0 7H14V8.25H0z" transform="translate(5 5)"></path></g></g></svg>