<svg width="24px" height="24px" viewBox="0 0 24 24" version="1.1">
    <g id="toolbar_to_do_list" stroke="none" stroke-width="1" fill="none" fill-rule="evenodd">
        <rect id="矩形" stroke="#979797" fill="#D8D8D8" opacity="0" x="0" y="0" width="24" height="24"></rect>
        <path d="M17.0799012,4.99815729 L15.7799012,6.29815729 L6.3,6.3 L6.297,9.99915729
                     L6.3,10 L6.3,14 L6.298,13.9991573 L6.3,17.7 L17.7,17.7 L17.6999012,12.5811573 L19,11.2811573
                      L19,18 C19,18.5522847 18.5522847,19 18,19 L6,19 C5.44771525,19 5,18.5522847
                       5,18 L5,6 C5,5.44771525 5.44771525,5 6,5 L17.0799012,4.99815729
                        Z M19.6568542,6.82157288 C19.910695,7.07541366 19.910695,7.4869709
                         19.6568542,7.74081169 L11.9847457,15.4129203 C11.7894835,15.6081824
                          11.472901,15.6081824 11.2776389,15.4129203 L8.34314575,12.4784271
                           C8.08930496,12.2245863 8.08930496,11.8130291 8.34314575,11.5591883
                            C8.59698654,11.3053475 9.00854378,11.3053475 9.26238457,11.5591883
                             L11.6311923,13.927996 L18.7376154,6.82157288 C18.9914562,6.56773209
                              19.4030135,6.56773209 19.6568542,6.82157288 Z" id="Shape" fill="#464D5A"></path>
    </g>
</svg>